<?xml version="1.0" encoding="utf-8"?>
<!-- Generator: Adobe Illustrator 16.1.0, SVG Export Plug-In . SVG Version: 6.00 Build 0)  -->
<!DOCTYPE svg PUBLIC "-//W3C//DTD SVG 1.1//EN" "http://www.w3.org/Graphics/SVG/1.1/DTD/svg11.dtd">
<svg version="1.1" id="Layer_1" xmlns="http://www.w3.org/2000/svg" xmlns:xlink="http://www.w3.org/1999/xlink" x="0px" y="0px"
	 width="189.207px" height="51.125px" viewBox="0 0 189.207 51.125" enable-background="new 0 0 189.207 51.125"
	 xml:space="preserve">
<g>
	<path fill="#E31D3A" d="M41.511,7.135c0.322,0.071,0.641,0.166,0.966,0.209c2.578,0.35,4.935,1.224,6.947,2.914
		c2.118,1.78,3.314,4.086,3.839,6.771c0.023,0.118,0.032,0.24,0.039,0.36c0.002,0.038-0.021,0.077-0.055,0.191
		c-1.285,0-2.593,0.02-3.899-0.029c-0.145-0.005-0.335-0.389-0.401-0.625c-0.675-2.424-2.122-4.208-4.412-5.249
		c-2.027-0.921-4.168-1.098-6.352-0.737c-3.667,0.605-6.202,2.71-7.562,6.102c-1.919,4.783-1.819,9.625,0.257,14.331
		c1.936,4.386,5.919,6.089,10.293,5.673c4.61-0.438,7.538-3.536,8.165-8.42c0.028-0.219,0.051-0.438,0.081-0.694
		c1.409,0,2.79,0,4.225,0c-0.151,1.807-0.557,3.506-1.264,5.123c-1.98,4.529-5.54,6.922-10.364,7.512
		c-2.723,0.334-5.412,0.121-7.995-0.883c-3.602-1.396-6.086-3.975-7.453-7.529c-2.103-5.475-2.151-11.017,0.188-16.427
		c2.115-4.894,5.936-7.688,11.248-8.395c0.244-0.032,0.479-0.129,0.717-0.197C39.65,7.135,40.581,7.135,41.511,7.135z"/>
	<path fill="#E31D3A" d="M168.061,49.239c-0.101-0.052-0.194-0.124-0.302-0.149c-1.088-0.261-1.088-0.259-1.088-1.404
		c0-0.761,0-1.521,0-2.359c0.434,0.129,0.772,0.234,1.117,0.332c1.978,0.557,3.528-0.191,4.318-2.096
		c0.439-1.063,0.885-2.129,1.268-3.215c0.112-0.324,0.127-0.764,0.004-1.078c-1.75-4.457-3.532-8.901-5.308-13.353
		c-1.194-3.003-2.39-6.007-3.631-9.127c0.522,0,0.976,0,1.427,0c0.768,0,1.538,0.042,2.305-0.016c0.47-0.033,0.633,0.164,0.77,0.554
		c1.027,2.916,2.074,5.826,3.111,8.736c1.078,3.027,2.152,6.057,3.23,9.082c0.059,0.168,0.145,0.326,0.271,0.612
		c0.438-1.271,0.84-2.43,1.235-3.591c1.697-4.951,3.4-9.9,5.078-14.857c0.146-0.432,0.356-0.542,0.777-0.532
		c1.107,0.024,2.217,0.009,3.426,0.009c-0.177,0.481-0.318,0.891-0.474,1.294c-3.216,8.377-6.416,16.76-9.662,25.125
		c-0.472,1.217-1.091,2.389-1.759,3.514c-0.815,1.372-2.07,2.186-3.678,2.404c-0.09,0.014-0.172,0.074-0.256,0.113
		C169.517,49.239,168.791,49.239,168.061,49.239z"/>
	<path fill="#E31D3A" d="M4.14,29.339c1.025,0.021,2.05,0.045,3.076,0.063c0.38,0.007,0.76,0,1.229,0
		c0,0.515-0.047,0.978,0.009,1.429c0.149,1.196,0.226,2.418,0.55,3.567c0.399,1.412,1.479,2.307,2.922,2.508
		c1.102,0.152,2.266,0.171,3.36-0.01c1.821-0.297,2.821-1.565,3.161-3.326c0.16-0.828,0.229-1.687,0.231-2.528
		c0.017-7.399,0.01-14.798,0.01-22.196c0-0.26,0-0.521,0-0.832c1.42,0,2.797,0,4.216,0c0.01,0.221,0.027,0.417,0.027,0.614
		c0.001,7.722,0.001,15.444,0,23.167c0,1.365-0.163,2.705-0.687,3.977c-0.866,2.104-2.386,3.533-4.531,4.266
		c-2.499,0.852-5.05,0.913-7.585,0.227c-3.289-0.89-5.111-3.146-5.738-6.44c-0.062-0.324-0.165-0.642-0.249-0.962
		C4.14,31.686,4.14,30.512,4.14,29.339z"/>
	<path fill="#E31D3A" d="M59.721,26.867c0,4.404,0,8.703,0,13.035c-1.417,0-2.782,0-4.195,0c0-10.629,0-21.248,0-31.911
		c0.219-0.011,0.415-0.026,0.612-0.026c4.468-0.001,8.936-0.043,13.402,0.024c1.317,0.02,2.677,0.196,3.936,0.571
		c2.93,0.872,4.753,2.91,5.464,5.875c0.548,2.284,0.52,4.584-0.259,6.818c-1.2,3.448-3.817,5.218-7.31,5.456
		c-3.604,0.245-7.231,0.121-10.849,0.157C60.284,26.869,60.045,26.867,59.721,26.867z M59.747,23.239
		c0.19,0.017,0.327,0.039,0.464,0.039c2.771,0.002,5.54,0.018,8.311-0.011c0.723-0.007,1.456-0.094,2.164-0.244
		c1.996-0.424,3.483-1.478,4.071-3.535c0.327-1.146,0.345-2.312,0.15-3.485c-0.306-1.849-1.306-3.175-3.064-3.82
		c-0.822-0.302-1.72-0.528-2.59-0.553c-3.051-0.083-6.104-0.063-9.156-0.079c-0.113,0-0.226,0.047-0.35,0.075
		C59.747,15.491,59.747,19.329,59.747,23.239z"/>
	<path fill="#E31D3A" d="M99.332,32.582c-0.754,3.391-2.438,5.923-5.646,7.131c-3.182,1.197-6.399,1.075-9.499-0.355
		c-2.124-0.979-3.613-2.655-4.514-4.795c-1.573-3.734-1.893-7.568-0.392-11.396c2.895-7.383,10.67-8.214,15.105-5.601
		c2.435,1.436,3.861,3.674,4.566,6.326c0.422,1.586,0.521,3.259,0.748,4.896c0.03,0.212-0.021,0.436-0.039,0.725
		c-5.775,0-11.509,0-17.229,0c-0.514,3.612,2.085,7.047,5.69,7.465c1.124,0.131,2.316,0.097,3.422-0.133
		c2.006-0.412,3.283-1.748,3.856-3.709c0.127-0.436,0.31-0.572,0.749-0.561C97.178,32.604,98.205,32.582,99.332,32.582z
		 M95.595,26.118c0.025-3.139-2.618-6.587-6.757-6.516c-4.387,0.077-6.428,3.888-6.398,6.516
		C86.81,26.118,91.181,26.118,95.595,26.118z"/>
	<path fill="#E31D3A" d="M165.776,29.499c-5.803,0-11.519,0-17.295,0c-0.087,1.446,0.166,2.772,0.786,4.021
		c1.286,2.588,4.111,3.929,7.309,3.541c2.523-0.304,4.229-1.566,4.973-4.047c0.05-0.162,0.223-0.406,0.344-0.41
		c1.146-0.029,2.294-0.019,3.518-0.019c-0.465,2.261-1.39,4.163-3.101,5.629c-1.836,1.572-4.021,2.194-6.392,2.249
		c-3.219,0.074-6.139-0.705-8.396-3.177c-1.622-1.777-2.425-3.938-2.823-6.271c-0.623-3.646-0.183-7.099,1.918-10.225
		c3.187-4.74,9.973-6.036,14.534-2.784c1.468,1.046,2.501,2.454,3.244,4.083C165.457,24.416,165.837,26.866,165.776,29.499z
		 M148.533,26.105c4.387,0,8.772,0,13.157,0c0.03-2.957-2.467-6.675-6.952-6.496C150.498,19.78,148.509,23.491,148.533,26.105z"/>
	<path fill="#E31C3C" d="M142.654,39.909c-1.242,0-2.467,0-3.787,0c0-0.242,0-0.476,0-0.706c0-4.973,0.002-9.944-0.002-14.917
		c-0.002-2.911-1.777-4.67-4.705-4.671c-4.012-0.002-6.681,2.497-6.767,6.518c-0.093,4.385-0.047,8.771-0.062,13.157
		c-0.002,0.196,0,0.396,0,0.624c-1.276,0-2.5,0-3.765,0c0-7.697,0-15.368,0-23.089c1.166,0,2.323,0,3.537,0c0,1.167,0,2.31,0,3.45
		c0.04,0.019,0.08,0.036,0.12,0.054c0.131-0.18,0.27-0.354,0.393-0.538c1.463-2.194,3.562-3.296,6.141-3.509
		c1.642-0.136,3.277-0.021,4.832,0.604c2.184,0.88,3.349,2.592,3.802,4.826c0.168,0.827,0.274,1.682,0.278,2.525
		c0.024,5.072,0.015,10.146,0.014,15.22C142.682,39.594,142.666,39.732,142.654,39.909z"/>
	<path fill="#E31D39" d="M120.511,39.914c-1.27,0-2.479,0-3.777,0c0-0.248,0-0.48,0-0.716c0-4.935,0.001-9.867,0-14.801
		c-0.001-3.035-1.766-4.796-4.787-4.783c-3.832,0.016-6.361,2.341-6.695,6.164c-0.033,0.402-0.045,0.807-0.045,1.211
		c-0.004,4.062-0.002,8.128-0.002,12.19c0,0.219,0,0.438,0,0.707c-1.261,0-2.479,0-3.752,0c0-7.66,0-15.329,0-23.044
		c1.135,0,2.276,0,3.502,0c0,1.146,0,2.301,0,3.456c0.047,0.014,0.096,0.027,0.145,0.042c0.115-0.173,0.232-0.347,0.352-0.521
		c1.488-2.228,3.617-3.352,6.25-3.544c1.604-0.118,3.194-0.004,4.713,0.598c2.316,0.917,3.459,2.754,3.894,5.103
		c0.136,0.732,0.218,1.485,0.221,2.229c0.019,5.095,0.011,10.188,0.009,15.285C120.533,39.611,120.521,39.73,120.511,39.914z"/>
</g>
</svg>
