<?xml version="1.0" encoding="utf-8"?>
<!-- Generator: Adobe Illustrator 16.0.0, SVG Export Plug-In . SVG Version: 6.00 Build 0)  -->
<!DOCTYPE svg PUBLIC "-//W3C//DTD SVG 1.1//EN" "http://www.w3.org/Graphics/SVG/1.1/DTD/svg11.dtd">
<svg version="1.1" id="Layer_1" xmlns="http://www.w3.org/2000/svg" xmlns:xlink="http://www.w3.org/1999/xlink" x="0px" y="0px"
	 width="447.777px" height="109.444px" viewBox="0 0 447.777 109.444" enable-background="new 0 0 447.777 109.444"
	 xml:space="preserve">
<path fill="#ED1F24" d="M7.006,81.392h111.041V64.954c0,0-48.308,0-61.056,0C21.767,34.091,56.656,8.595,56.656,8.595h150.291
	l28.515,59.043l28.18-59.043h47.972l1.678,74.81h12.076c0,0,0-42.939,0-58.372c0-5.058,10.375-16.438,15.432-16.438
	c24.814,0,99.971,0,99.971,0v17.78h-81.854l0.334,55.017h81.52v19.458H284.441l0.118-70.813l-38.362,70.813H226.74l-39.586-68.772
	l-1.342,68.772h-28.515l0.671-75.817c0,0-68.431,0.335-84.539,0.335c-11.582,0-7.586,20.128-2.349,20.128
	c15.078,0,49.986,1.007,59.714,1.007c43.611,27.173,1.342,54.347,1.342,54.347H7.006V81.392z"/>
</svg>
