<?xml version="1.0" encoding="utf-8"?>
<!-- Generator: Adobe Illustrator 16.0.0, SVG Export Plug-In . SVG Version: 6.00 Build 0)  -->
<!DOCTYPE svg PUBLIC "-//W3C//DTD SVG 1.1//EN" "http://www.w3.org/Graphics/SVG/1.1/DTD/svg11.dtd">
<svg version="1.1" id="Layer_1" xmlns="http://www.w3.org/2000/svg" xmlns:xlink="http://www.w3.org/1999/xlink" x="0px" y="0px"
	 width="300px" height="300px" viewBox="0 0 300 300" enable-background="new 0 0 300 300" xml:space="preserve">
<g>
	<path fill-rule="evenodd" clip-rule="evenodd" fill="#FFFFFF" d="M0,300C0,200,0,100,0,0c100,0,200,0,300,0c0,100,0,200,0,300
		C200,300,100,300,0,300z"/>
	<path fill-rule="evenodd" clip-rule="evenodd" fill="#981A32" d="M240.682,261.408c-11.683,8.095-22.756,15.768-34.418,23.848
		c-9.485-13.592-18.928-27.125-28.553-40.918c4.732-3.318,9.211-6.458,14.168-9.933c-11.381-16.345-22.729-32.641-35.684-51.243
		c0,22.362,0,42.36,0,62.841c4.331,0,9.736,0,15.471,0c0,16.718,0,32.972,0,49.612c-13.465,0-27.176,0-41.195,0
		c0-16.188,0-32.437,0-49.337c5.511,0,11.056,0,16.192,0c0-20.661,0-40.663,0-63.475c-12.899,18.625-24.198,34.939-35.826,51.729
		c4.657,3.267,9.207,6.46,14.171,9.942c-9.373,13.572-18.68,27.052-28.323,41.016c-11.504-7.885-22.807-15.632-34.554-23.683
		c9.454-13.694,18.757-27.168,28.324-41.025c4.783,3.213,9.401,6.315,14.366,9.651c11.451-16.561,22.785-32.952,34.119-49.345
		c-0.324-0.897-0.647-1.796-0.971-2.693c-18.046,6.074-36.093,12.147-54.501,18.344c1.955,5.794,3.685,10.923,5.561,16.481
		c-15.667,5.409-31.136,10.749-47.175,16.287c-4.597-13.224-9.085-26.133-13.722-39.467c15.816-5.463,31.305-10.813,47.162-16.289
		c2.012,5.564,3.906,10.806,5.906,16.338c18.449-6.455,36.526-12.78,54.604-19.105c-0.162-0.878-0.324-1.757-0.486-2.636
		c-17.985-6.07-35.969-12.14-54.363-18.348c-1.897,5.512-3.708,10.77-5.623,16.332c-15.889-5.332-31.301-10.504-47.338-15.885
		c4.471-13.232,8.897-26.328,13.383-39.604c15.833,5.326,31.249,10.512,47.25,15.895c-1.752,5.447-3.441,10.696-5.315,16.521
		c18.518,6.138,36.731,12.174,54.944,18.211c0.398-0.769,0.795-1.537,1.193-2.306c-15.731-22.594-31.461-45.188-47.476-68.188
		c-4.797,3.264-9.383,6.383-14.272,9.708C64.954,82.4,52.421,64.421,39.577,45.993c11.354-7.876,22.518-15.621,34.329-23.814
		c12.688,18.181,25.296,36.248,38.156,54.674c-4.619,3.278-9.186,6.519-14.096,10.003c15.854,22.743,31.594,45.323,48.7,69.863
		c0-29.66,0-57.003,0-85.053c-4.98,0-10.522,0-16.269,0c0-22.462,0-44.223,0-66.325c13.766,0,27.47,0,41.39,0
		c0,21.87,0,43.646,0,65.868c-5.38,0-10.799,0-16.374,0c0,28.021,0,55.595,0,85.979c17.209-24.87,32.916-47.57,48.795-70.518
		c-4.859-3.387-9.461-6.595-14.173-9.88c12.688-18.354,25.161-36.396,37.917-54.851c11.51,7.894,22.822,15.652,34.465,23.639
		c-12.631,18.285-25.094,36.326-37.91,54.877c-4.757-3.209-9.362-6.316-14.328-9.667c-15.855,22.98-31.638,45.855-47.42,68.73
		c0.551,0.578,1.1,1.155,1.65,1.733c17.926-6.164,35.852-12.327,54.078-18.595c-1.875-5.547-3.622-10.716-5.531-16.364
		c15.682-5.413,31.288-10.8,47.205-16.294c4.588,13.204,9.044,26.033,13.708,39.458c-15.654,5.409-31.108,10.749-47.118,16.28
		c-2.005-5.476-3.904-10.663-5.939-16.221c-18.052,6.223-35.752,12.323-53.406,18.409c-0.623,2.255-0.209,3.455,2.136,4.232
		c17.005,5.639,33.961,11.428,51.438,17.341c1.896-5.414,3.68-10.51,5.705-16.301c15.773,5.288,31.403,10.528,47.347,15.873
		c-4.481,13.225-8.831,26.059-13.411,39.572c-15.875-5.333-31.515-10.588-47.299-15.89c1.843-5.635,3.543-10.831,5.371-16.419
		c-18.059-6.063-35.879-12.047-53.699-18.03c-0.617,0.604-1.234,1.21-1.853,1.814c11.505,16.638,23.009,33.275,34.681,50.156
		c4.873-3.325,9.368-6.393,14.34-9.785C221.664,234.126,231.037,247.571,240.682,261.408z"/>
	<path fill-rule="evenodd" clip-rule="evenodd" fill="#FFFFFF" d="M255.086,219.498c-10.812-3.624-20.997-7.037-31.795-10.656
		c2.948-8.799,5.812-17.343,8.887-26.521c10.604,3.553,21.007,7.038,31.852,10.672C261.054,201.813,258.174,210.349,255.086,219.498
		z"/>
	<path fill-rule="evenodd" clip-rule="evenodd" fill="#FFFFFF" d="M69.869,182.908c3.127,8.986,6.064,17.428,9.195,26.425
		c-10.423,3.611-20.7,7.173-31.68,10.978c-3.064-8.743-6.084-17.359-9.254-26.403C48.828,190.2,59.122,186.633,69.869,182.908z"/>
	<path fill-rule="evenodd" clip-rule="evenodd" fill="#FFFFFF" d="M254.651,119.2c3.09,8.863,6.083,17.447,9.206,26.406
		c-10.515,3.64-20.814,7.205-31.686,10.969c-3.064-8.733-6.066-17.284-9.262-26.388C233.406,126.554,243.835,122.944,254.651,119.2z
		"/>
	<path fill-rule="evenodd" clip-rule="evenodd" fill="#FFFFFF" d="M188.125,247.131c7.674-5.332,15.127-10.512,22.982-15.971
		c6.471,9.263,12.725,18.213,19.176,27.447c-7.668,5.321-15.158,10.518-23.005,15.962
		C200.9,265.432,194.648,256.476,188.125,247.131z"/>
	<path fill-rule="evenodd" clip-rule="evenodd" fill="#FFFFFF" d="M114.643,247.264c-6.426,9.301-12.621,18.269-19.03,27.545
		c-7.663-5.251-15.124-10.363-23.086-15.819c6.282-9.104,12.447-18.038,19.016-27.558
		C99.259,236.72,106.813,241.898,114.643,247.264z"/>
	<path fill-rule="evenodd" clip-rule="evenodd" fill="#FFFFFF" d="M46.895,119.988c10.676,3.592,20.849,7.015,31.794,10.696
		c-2.983,8.897-5.894,17.579-8.897,26.538c-10.703-3.607-21.031-7.089-31.806-10.721C40.936,137.726,43.821,129.138,46.895,119.988z
		"/>
	<path fill-rule="evenodd" clip-rule="evenodd" fill="#FFFFFF" d="M164.82,287.865c-9.255,0-18.204,0-27.487,0
		c0-10.942,0-21.83,0-33.048c8.993,0,18.063,0,27.487,0C164.82,265.609,164.82,276.507,164.82,287.865z"/>
	<path fill-rule="evenodd" clip-rule="evenodd" fill="#FDFDFE" d="M160.409,29.651c-2.12,0-3.732,0-5.423,0
		c-0.434-1.69-0.84-3.271-1.191-4.64c-1.64-1.475-3.208-1.289-5.549-0.487c0,8.513,0,17.167,0,25.891
		c1.608,1.687,3.351,1.873,5.358,0.32c1.527-2.716,0.656-5.75,0.857-9.031c-1.311-0.394-2.633-0.791-4.122-1.239
		c0-1.414,0-2.859,0-4.647c3.194,0,6.284,0,10.31,0c-0.246,5.159,0.063,10.483-0.91,15.563c-0.877,4.576-4.755,6.835-9.408,6.414
		c-4.839-0.438-8.18-3.296-8.379-8.307c-0.311-7.81-0.427-15.66,0.029-23.455c0.334-5.711,4.182-8.608,9.876-8.138
		C158.623,18.454,160.438,23.115,160.409,29.651z"/>
	<path fill-rule="evenodd" clip-rule="evenodd" fill="#FDFDFE" d="M57.688,50.722c1.943-1.323,3.295-2.243,4.83-3.287
		C68.72,56.425,74.816,65.263,80.844,74c5.136-1.188,5.048-3.659,3.018-6.676c-5.281-7.846-10.629-15.646-16.144-23.75
		c1.635-1.178,3.081-2.22,4.75-3.422c5.832,8.549,11.72,16.784,17.159,25.308c3.02,4.731,2.028,9.464-2.648,12.674
		c-4.637,3.184-8.982,1.922-12.129-2.506C69.084,67.517,63.543,59.247,57.688,50.722z"/>
	<path fill-rule="evenodd" clip-rule="evenodd" fill="#FDFDFE" d="M212.844,75.663c-1.736-1.332-2.915-2.235-4.645-3.562
		c7.416-10.642,14.779-21.211,22.135-31.766c11.527,6.961,13.588,10.988,9.46,18.145c-5.215,9.041-9.438,10.3-18.448,5.139
		C218.633,67.462,215.889,71.35,212.844,75.663z"/>
	<path fill-rule="evenodd" clip-rule="evenodd" fill="#9A1A35" d="M232.453,47.521c1.779,1.701,2.941,2.812,3.801,3.633
		c-0.803,4.94-2.912,7.859-6.529,10.301c-1.418-0.666-2.855-1.341-5.057-2.373C227.167,55.37,229.452,51.977,232.453,47.521z"/>
</g>
</svg>
