<?xml version="1.0" encoding="utf-8"?>
<!-- Generator: Adobe Illustrator 16.0.0, SVG Export Plug-In . SVG Version: 6.00 Build 0)  -->
<!DOCTYPE svg PUBLIC "-//W3C//DTD SVG 1.1//EN" "http://www.w3.org/Graphics/SVG/1.1/DTD/svg11.dtd">
<svg version="1.1" id="Layer_1" xmlns="http://www.w3.org/2000/svg" xmlns:xlink="http://www.w3.org/1999/xlink" x="0px" y="0px"
	 width="768px" height="400px" viewBox="0 0 768 400" enable-background="new 0 0 768 400" xml:space="preserve">
<rect fill="#FFFFFF" width="768" height="400"/>
<g id="g12" transform="matrix(1.25,0,0,-1.25,0,275.825)">
	<g id="g14" transform="scale(0.24,0.24)">
		<path id="path16" fill="#2865B0" d="M1361.25,301.809l160.69,166.354l166.471-160.897l-160.697-166.353L1361.25,301.809z
			 M1518.6,567.661l-258.929-268.332L1530.189,37.88l259.072,268.662L1518.6,567.661"/>
		<path id="path18" fill="#A8A5A6" d="M1789.261,306.542l-18.939-45.929L1511.289-7.771l-270.521,261.455l18.818,45.625
			l270.511-261.449L1789.261,306.542"/>
		<path id="path20" fill="#A8A5A6" d="M1375.404,288.177l128.916,133.547l152.445-147.231l31.712,32.793l-166.458,160.973
			L1361.25,301.809L1375.404,288.177"/>
		<path id="path22" fill="#EC2227" d="M1101.061,551.855l129.691-229.976l-283.906-85.197L1101.061,551.855z M1095.065,692.976
			L814.691,119.944l516.185,154.896L1095.065,692.976"/>
		<path id="path24" fill="#A8A5A6" d="M814.74,120.152l280.365,573.034l-45.98,16.243L770,140.165L814.74,120.152"/>
		<path id="path26" fill="#A8A5A6" d="M958.753,261.09l-11.908-24.408l283.905,85.197L1101.1,552.063l-9.873-20.197l1.462-2.565
			l109.98-195.011l-241.113-72.352L958.753,261.09"/>
		<path id="path28" fill="#A8A5A6" d="M1182.321,370.445c-48.415-21.429-83.294-57.847-92.494-99.93l-0.986,3.636
			c-1.751,7.075-2.764,14.344-2.995,21.771c-1.436,46.1,27.741,87.949,73.926,114.897L1182.321,370.445"/>
		<path id="path30" fill="#FFFFFF" d="M1133.564,456.687c-74.863-36.543-123.952-99.714-121.769-169.785
			c3.333-107.303,124.78-190.597,271.258-186.04c146.478,4.57,262.503,95.247,259.17,202.549
			c-1.263,40.413-18.792,76.991-48.584,107.179l-44.388-45.977c11.491-17.282,17.848-36.183,18.496-56.813
			c2.399-77.258-81.133-142.55-186.603-145.825c-105.456-3.281-192.894,56.693-195.3,133.947
			c-1.436,46.047,27.669,87.848,73.753,114.797L1133.564,456.687z M1238.568,438.487c10.993,1.794,22.269,2.899,33.877,3.263
			c38.568,1.195,75.127-6.235,105.599-19.715l38.922,40.342c-42.269,18.641-92.542,28.727-146.009,27.062
			c-19.775-0.617-39.007-2.808-57.461-6.398L1238.568,438.487"/>
		<path id="path32" fill="#A8A5A6" d="M1449.147,364.759c11.344-17.204,17.962-36.473,18.6-56.958
			c0.231-7.446-0.332-14.785-1.644-21.965l-0.749-3.499c-6.351,22.168-19.88,42.241-38.717,58.929L1449.147,364.759"/>
		<path id="path34" fill="#A8A5A6" d="M1265.404,390.32c2.865,0.192,5.745,0.321,8.652,0.413c23.376,0.728,46.286-1.893,67.158-6.89
			l36.829,38.192c-30.56,13.589-66.872,20.913-105.599,19.715c-11.576-0.361-22.9-1.476-33.877-3.263L1265.404,390.32"/>
		<path id="path36" fill="#A8A5A6" d="M1542.223,303.409c3.337-107.3-112.689-197.977-259.17-202.547
			c-146.478-4.557-267.923,78.737-271.256,186.04l1.699-54.113c3.34-107.311,124.782-190.599,271.263-186.042
			c146.455,4.564,262.5,95.247,259.163,202.549L1542.223,303.409"/>
		<path id="path38" fill="#231F20" d="M1097.532-49.034h118.952l-8.656-40.736h-56.982l-3.545-16.673h56.815l-8.721-40.742h-56.758
			l-12.393-58.275h-61.966L1097.532-49.034"/>
		<path id="path40" fill="#231F20" d="M1230.547-49.034h61.966l-33.258-156.426h-61.96L1230.547-49.034"/>
		<path id="path42" fill="#231F20" d="M1277.539-205.46h60.664l11.836,55.684h7.145c9.977,0,13.219-3.04,12.868-10.84
			c-0.687-13.438-2.93-33.151-1.735-44.844h60.671c-2.129,23.607,3.005,45.71,2.389,59.147
			c-0.501,11.921-7.305,18.633-22.191,19.941l0.081,0.417c24.603,5.638,35.088,19.284,38.91,37.266
			c6.263,29.466-11.289,39.655-44.87,39.655h-92.52L1277.539-205.46L1277.539-205.46z M1357.591-114.255l6.312,29.688h5.625
			c12.142,0,19.658-2.376,17.207-13.867c-2.48-11.699-12.031-15.82-23.942-15.82H1357.591"/>
		<path id="path44" fill="#231F20" d="M1700.439-178.083c-7.51,0-13.6-6.087-13.6-13.6c0-7.507,6.09-13.594,13.6-13.594
			c7.507,0,13.6,6.087,13.6,13.594C1714.04-184.17,1707.946-178.083,1700.439-178.083z M1716.442-191.683
			c0-8.835-7.175-15.996-16.003-15.996s-16.006,7.161-16.006,15.996s7.175,16.003,16.006,16.003
			C1709.267-175.681,1716.442-182.849,1716.442-191.683"/>
		<path id="path46" fill="#231F20" d="M1697.256-190.512h3.932c2.637,0.117,3.229,1.315,3.229,2.663
			c0,1.361-0.592,2.552-3.229,2.669h-3.932V-190.512z M1697.301-192.562v-7.767h-2.38v17.201h6.143c2.881,0,5.863-0.905,5.863-4.31
			c0-2.07-1.237-3.665-3.245-4.141v-0.052c2.074-0.495,2.357-1.595,2.624-3.522c0.257-1.719,0.452-3.548,1.071-5.176h-2.549
			c-0.221,1.029-0.498,2.148-0.615,3.171c-0.195,1.549-0.195,2.962-0.983,3.815c-0.69,0.781-1.637,0.71-2.594,0.781H1697.301"/>
		<path id="path48" fill="#231F20" d="M1592.734-93.819l0.456,10.202c1.582,29.329-23.591,38.288-58.734,38.288
			c-45.71,0-75.843-18.424-82.757-50.931c-4.281-20.15,1.087-34.661,23.613-41.81l41.214-13.001
			c5.495-1.738,9.391-4.766,8.158-10.618c-1.481-6.927-8.574-12.786-17.676-12.786c-5.84,0-9.339,1.953-11.071,4.987
			c-1.696,3.255-1.631,7.578-0.713,11.914h-59.368c-8.665-40.729,23.519-52.422,61.224-52.422c44.193,0,78.812,16.032,86.96,54.372
			c4.001,18.854-1.667,32.943-19.629,41.175c-14.398,6.722-35.358,11.045-46.54,14.512c-6.084,1.953-9.258,4.336-8.073,9.961
			c1.022,4.779,6.273,9.115,16.237,9.115c8.021,0,12.754-3.262,10.892-13.008"/>
		<path id="path50" fill="#231F20" d="M1594.372-94.646l0.107,0.007l38.197,0.026l-23.542-112.09l62.197-0.065l23.922,112.181
			h38.281l10.348,44.388l-139.886-0.065L1594.372-94.646"/>
	</g>
</g>
</svg>
