<?xml version="1.0" encoding="utf-8"?>
<!-- Generator: Adobe Illustrator 16.0.0, SVG Export Plug-In . SVG Version: 6.00 Build 0)  -->
<!DOCTYPE svg PUBLIC "-//W3C//DTD SVG 1.1//EN" "http://www.w3.org/Graphics/SVG/1.1/DTD/svg11.dtd">
<svg version="1.1" id="Layer_1" xmlns="http://www.w3.org/2000/svg" xmlns:xlink="http://www.w3.org/1999/xlink" x="0px" y="0px"
	 width="350px" height="130px" viewBox="0 0 350 130" enable-background="new 0 0 350 130" xml:space="preserve">
<linearGradient id="SVGID_1_" gradientUnits="userSpaceOnUse" x1="221" y1="-175" x2="571" y2="-175" gradientTransform="matrix(1 0 0 -1 -221 -110)">
	<stop  offset="0" style="stop-color:#000000"/>
	<stop  offset="0.279" style="stop-color:#020202;stop-opacity:0.721"/>
	<stop  offset="0.4167" style="stop-color:#0A0A0A;stop-opacity:0.5833"/>
	<stop  offset="0.5234" style="stop-color:#171717;stop-opacity:0.4766"/>
	<stop  offset="0.6143" style="stop-color:#2A2A2A;stop-opacity:0.3857"/>
	<stop  offset="0.695" style="stop-color:#424242;stop-opacity:0.305"/>
	<stop  offset="0.7686" style="stop-color:#606060;stop-opacity:0.2314"/>
	<stop  offset="0.8367" style="stop-color:#838383;stop-opacity:0.1633"/>
	<stop  offset="0.9006" style="stop-color:#ADADAD;stop-opacity:0.0994"/>
	<stop  offset="0.9588" style="stop-color:#DADADA;stop-opacity:0.0412"/>
	<stop  offset="1" style="stop-color:#FFFFFF;stop-opacity:0"/>
</linearGradient>
<rect fill="url(#SVGID_1_)" width="350" height="130"/>
<path fill="#FFFFFF" d="M37.677,112.889c-2.155-1.847-4.216-3.441-4.13-3.742c2.6-9.062,6.973-26.53,7.824-36.08
	c0.383-4.303,0.823-10.401,0.413-16.765c-0.589-9.159-2.469-18.862-4.834-24.54c-1.003-2.406-3.842-9.694-3.842-9.694
	s-0.951,0.315-1.673,0.413c-0.55,0.073-0.862,0.196-1.021-0.024c-0.288-0.401,0.409-0.587,3.717-5.175
	c1.822-2.527,3.912-5.37,3.912-5.37l-9.71,1.312c0,0-4.067,6.324-7.492,12.562c-1.678,3.056-3.056,6.203-4.009,8.357
	c-0.612,1.384-1.507,3.069-2.259,4.957c-1.401,3.516-2.568,7.168-2.568,7.168s-2.511,2.429-2.972,3.523
	c-0.797,1.887,0.494,4.139,0.494,4.139s-1.299,6.805-1.708,9.078C6.991,67.6,6.951,76.205,7.185,80.598
	c0.461,8.676,3.304,16.691,6.269,21.09c1.367,2.028,6.164,5.207,6.164,5.207s-1.814,2.155-3.249,4.754
	c-0.866,1.572-3.003,6.439-3.003,6.439s13.341-1.143,17.801-1.117c2.144,0.012,6.608,0.582,8.552,0.631
	c0.62,0.018,2.3-0.77,2.381-0.947C42.16,116.521,39.828,114.729,37.677,112.889z M18.07,94.01
	c-2.635-5.631-3.903-12.689-4.422-16.084c-0.772-5.059-0.292-20.652,1.143-20.434c1.031,0.157,5.248,1.871,5.248,1.871l8.504-2.917
	c0,0-5.021-1.771-6.584-2.599c-1.063-0.563-3.178-2.163-3.475-3.329c-0.261-1.026,0.981-3.073,1.628-3.912
	c1.287-1.667,6.707-5.103,6.707-5.103s-7.678,1.458-7.484,0.171c0.305-2.019,6.073-12.413,6.511-12.513
	c0.851-0.194,3.208,5.103,5.88,13.291c2.074,6.352,3.134,13.849,3.426,18.708c0.716,11.925-3.178,36.254-7.921,42.492
	C26.742,104.297,20.913,100.084,18.07,94.01z M36.73,116.289c-5.564-0.412-12.769,0.402-13.412,0.413
	c-0.486,0.009,1.262-3.937,1.967-4.154c1.713-0.53,6.488-1.094,6.488-1.094C33.207,112.402,38.474,116.418,36.73,116.289z"/>
<g enable-background="new    ">
	<path fill="#FFFFFF" d="M111.777,64.999c-0.184-0.458-0.306-0.739-0.306-2.19v-2.802c0-1.655-0.673-2.267-2.204-2.267h-1.163v7.258
		h-3.367V47.172h5.081c3.489,0,4.989,1.35,4.989,4.1v1.4c0,1.834-0.704,3.031-2.204,3.617c1.684,0.585,2.234,1.935,2.234,3.794v2.75
		c0,0.866,0.031,1.502,0.368,2.165H111.777z M108.104,49.719v5.476h1.316c1.255,0,2.02-0.458,2.02-1.885v-1.757
		c0-1.273-0.521-1.834-1.714-1.834H108.104z"/>
	<path fill="#FFFFFF" d="M116.768,51.451c0-2.853,1.806-4.482,5.112-4.482s5.112,1.63,5.112,4.482v9.27
		c0,2.852-1.806,4.482-5.112,4.482s-5.112-1.63-5.112-4.482V51.451z M120.135,60.899c0,1.273,0.673,1.757,1.745,1.757
		s1.745-0.484,1.745-1.757v-9.626c0-1.273-0.673-1.757-1.745-1.757s-1.745,0.484-1.745,1.757V60.899z"/>
	<path fill="#FFFFFF" d="M136.206,64.999c-0.184-0.458-0.306-0.739-0.306-2.19v-2.802c0-1.655-0.673-2.267-2.204-2.267h-1.163v7.258
		h-3.367V47.172h5.082c3.489,0,4.989,1.35,4.989,4.1v1.4c0,1.834-0.704,3.031-2.204,3.617c1.684,0.585,2.234,1.935,2.234,3.794v2.75
		c0,0.866,0.031,1.502,0.368,2.165H136.206z M132.532,49.719v5.476h1.316c1.255,0,2.02-0.458,2.02-1.885v-1.757
		c0-1.273-0.521-1.834-1.714-1.834H132.532z"/>
</g>
<g enable-background="new    ">
	<path fill="#FFFFFF" d="M85.465,82.313c-0.125-0.375-0.208-0.604-0.208-1.793v-2.292c0-1.355-0.458-1.855-1.501-1.855h-0.792v5.94
		h-2.292V67.723h3.46c2.376,0,3.397,1.105,3.397,3.356v1.146c0,1.5-0.479,2.48-1.501,2.959c1.146,0.479,1.521,1.585,1.521,3.106
		v2.251c0,0.708,0.021,1.229,0.25,1.771H85.465z M82.963,69.808v4.481h0.896c0.854,0,1.375-0.376,1.375-1.543v-1.438
		c0-1.042-0.354-1.5-1.167-1.5H82.963z"/>
	<path fill="#FFFFFF" d="M88.861,71.225c0-2.334,1.23-3.668,3.481-3.668s3.481,1.334,3.481,3.668v7.587
		c0,2.335-1.23,3.669-3.481,3.669s-3.481-1.334-3.481-3.669V71.225z M91.154,78.958c0,1.042,0.458,1.438,1.188,1.438
		S93.53,80,93.53,78.958v-7.879c0-1.042-0.458-1.438-1.188-1.438s-1.188,0.396-1.188,1.438V78.958z"/>
	<path fill="#FFFFFF" d="M104.16,71.079V71.6c0,1.501-0.458,2.46-1.48,2.939c1.229,0.479,1.709,1.584,1.709,3.126v1.188
		c0,2.251-1.188,3.46-3.481,3.46h-3.606V67.723h3.46C103.138,67.723,104.16,68.828,104.16,71.079z M99.595,69.808v3.855h0.896
		c0.854,0,1.375-0.375,1.375-1.542v-0.813c0-1.042-0.354-1.5-1.167-1.5H99.595z M99.595,75.748v4.481h1.313
		c0.771,0,1.188-0.354,1.188-1.438V77.52c0-1.354-0.438-1.771-1.48-1.771H99.595z"/>
	<path fill="#FFFFFF" d="M105.576,71.225c0-2.334,1.23-3.668,3.481-3.668s3.481,1.334,3.481,3.668v7.587
		c0,2.335-1.23,3.669-3.481,3.669s-3.481-1.334-3.481-3.669V71.225z M107.869,78.958c0,1.042,0.458,1.438,1.188,1.438
		s1.188-0.396,1.188-1.438v-7.879c0-1.042-0.458-1.438-1.188-1.438s-1.188,0.396-1.188,1.438V78.958z"/>
	<path fill="#FFFFFF" d="M113.35,67.723h7.086v2.085h-2.397v12.506h-2.292V69.808h-2.397V67.723z"/>
	<path fill="#FFFFFF" d="M121.436,67.723h2.293v14.591h-2.293V67.723z"/>
	<path fill="#FFFFFF" d="M132.044,76.873v1.938c0,2.335-1.167,3.669-3.418,3.669s-3.418-1.334-3.418-3.669v-7.587
		c0-2.334,1.167-3.668,3.418-3.668s3.418,1.334,3.418,3.668v1.417h-2.168v-1.562c0-1.042-0.458-1.438-1.188-1.438
		s-1.188,0.396-1.188,1.438v7.879c0,1.042,0.458,1.417,1.188,1.417s1.188-0.375,1.188-1.417v-2.085H132.044z"/>
	<path fill="#FFFFFF" d="M136.524,67.557c2.23,0,3.377,1.334,3.377,3.668v0.459h-2.168v-0.604c0-1.042-0.417-1.438-1.146-1.438
		s-1.146,0.396-1.146,1.438c0,3.001,4.481,3.564,4.481,7.732c0,2.335-1.167,3.669-3.418,3.669c-2.251,0-3.418-1.334-3.418-3.669
		v-0.896h2.167v1.043c0,1.042,0.458,1.417,1.188,1.417c0.729,0,1.188-0.375,1.188-1.417c0-3.002-4.481-3.564-4.481-7.733
		C133.148,68.891,134.294,67.557,136.524,67.557z"/>
</g>
<g enable-background="new    ">
	<path fill="#FFFFFF" d="M57.592,56.464l3.319-21.993h6.77v30.976h-4.602V43.232l-3.363,22.214h-4.602l-3.629-21.904v21.904h-4.248
		V34.471h6.771L57.592,56.464z"/>
	<path fill="#FFFFFF" d="M85.647,42.126v4.027c0,4.956-2.39,7.655-7.257,7.655h-2.301v11.638h-4.868V34.471h7.168
		C83.258,34.471,85.647,37.17,85.647,42.126z M76.089,38.896v10.488h2.301c1.549,0,2.39-0.708,2.39-2.921v-4.646
		c0-2.212-0.841-2.921-2.39-2.921H76.089z"/>
	<path fill="#FFFFFF" d="M103.083,65.446h-4.912l-0.841-5.62h-5.974l-0.841,5.62h-4.469l4.956-30.976h7.124L103.083,65.446z
		 M91.977,55.623h4.69l-2.345-15.665L91.977,55.623z"/>
</g>
</svg>
