<?xml version="1.0" encoding="utf-8"?>
<!-- Generator: Adobe Illustrator 16.0.0, SVG Export Plug-In . SVG Version: 6.00 Build 0)  -->
<!DOCTYPE svg PUBLIC "-//W3C//DTD SVG 1.1//EN" "http://www.w3.org/Graphics/SVG/1.1/DTD/svg11.dtd">
<svg version="1.1" id="Layer_1" xmlns="http://www.w3.org/2000/svg" xmlns:xlink="http://www.w3.org/1999/xlink" x="0px" y="0px"
	 width="242px" height="150px" viewBox="0 0 242 150" enable-background="new 0 0 242 150" xml:space="preserve">
<rect fill="#FDFDFD" width="242" height="150"/>
<path fill="#ED1F24" d="M45.171,100.453h38.824v-5.747c0,0-16.891,0-21.348,0C50.332,83.915,62.53,75,62.53,75h52.547l9.97,20.644
	L134.899,75h16.772l0.587,26.156h4.222c0,0,0-15.013,0-20.408c0-1.769,3.628-5.748,5.396-5.748c8.676,0,34.953,0,34.953,0v6.217
	H168.21l0.117,19.236h28.502v6.803h-54.657l0.041-24.759L128.8,107.256h-6.803l-13.84-24.045l-0.47,24.045h-9.97l0.234-26.508
	c0,0-23.926,0.117-29.558,0.117c-4.049,0-2.652,7.037-0.821,7.037c5.272,0,17.478,0.353,20.879,0.353
	c15.248,9.5,0.469,19.001,0.469,19.001h-43.75V100.453z"/>
</svg>
