<?xml version="1.0" encoding="utf-8"?>
<!-- Generator: Adobe Illustrator 16.0.0, SVG Export Plug-In . SVG Version: 6.00 Build 0)  -->
<!DOCTYPE svg PUBLIC "-//W3C//DTD SVG 1.1//EN" "http://www.w3.org/Graphics/SVG/1.1/DTD/svg11.dtd">
<svg version="1.1" id="Layer_1" xmlns="http://www.w3.org/2000/svg" xmlns:xlink="http://www.w3.org/1999/xlink" x="0px" y="0px"
	 width="242px" height="150px" viewBox="0 0 242 150" enable-background="new 0 0 242 150" xml:space="preserve">
<rect fill="#FDFDFD" width="242" height="150"/>
<g>
	<path fill-rule="evenodd" clip-rule="evenodd" fill="#FFFFFF" d="M72.102,144.368c0-33.603,0-67.204,0-100.805
		c33.601,0,67.203,0,100.805,0c0,33.601,0,67.203,0,100.805C139.305,144.368,105.702,144.368,72.102,144.368z"/>
	<path fill-rule="evenodd" clip-rule="evenodd" fill="#981A32" d="M152.975,131.399c-3.927,2.721-7.647,5.298-11.566,8.013
		c-3.187-4.566-6.358-9.114-9.594-13.749c1.591-1.115,3.096-2.17,4.76-3.337c-3.823-5.492-7.636-10.969-11.989-17.219
		c0,7.515,0,14.234,0,21.115c1.456,0,3.271,0,5.198,0c0,5.618,0,11.079,0,16.671c-4.524,0-9.131,0-13.841,0
		c0-5.438,0-10.898,0-16.578c1.851,0,3.713,0,5.438,0c0-6.942,0-13.664,0-21.327c-4.332,6.257-8.129,11.739-12.037,17.38
		c1.565,1.1,3.093,2.171,4.761,3.342c-3.149,4.56-6.276,9.089-9.517,13.783c-3.867-2.649-7.664-5.255-11.611-7.96
		c3.178-4.601,6.304-9.128,9.518-13.784c1.607,1.079,3.159,2.121,4.827,3.242c3.847-5.563,7.656-11.072,11.464-16.58
		c-0.109-0.301-0.218-0.604-0.326-0.904c-6.064,2.039-12.128,4.081-18.313,6.164c0.656,1.946,1.238,3.669,1.868,5.538
		c-5.264,1.817-10.462,3.61-15.851,5.472c-1.545-4.443-3.054-8.781-4.611-13.261c5.314-1.837,10.518-3.634,15.847-5.474
		c0.676,1.868,1.312,3.631,1.983,5.49c6.2-2.17,12.274-4.294,18.349-6.421c-0.056-0.294-0.109-0.591-0.164-0.886
		c-6.043-2.039-12.087-4.079-18.267-6.165c-0.638,1.854-1.246,3.619-1.89,5.489c-5.338-1.793-10.517-3.531-15.905-5.339
		c1.503-4.446,2.989-8.847,4.497-13.307c5.319,1.79,10.5,3.532,15.877,5.341c-0.589,1.829-1.157,3.594-1.786,5.551
		c6.221,2.062,12.342,4.092,18.461,6.119c0.134-0.258,0.268-0.518,0.401-0.774c-5.286-7.592-10.572-15.184-15.952-22.913
		c-1.612,1.097-3.153,2.146-4.796,3.263c-4.283-6.145-8.494-12.186-12.81-18.377c3.815-2.646,7.565-5.249,11.535-8.002
		c4.263,6.109,8.5,12.18,12.821,18.371c-1.551,1.102-3.086,2.19-4.736,3.361c5.326,7.643,10.616,15.23,16.364,23.476
		c0-9.967,0-19.154,0-28.579c-1.672,0-3.536,0-5.467,0c0-7.548,0-14.86,0-22.287c4.626,0,9.23,0,13.907,0c0,7.349,0,14.666,0,22.132
		c-1.807,0-3.627,0-5.501,0c0,9.417,0,18.681,0,28.891c5.782-8.358,11.06-15.984,16.396-23.696
		c-1.633-1.138-3.178-2.215-4.763-3.319c4.264-6.167,8.455-12.229,12.742-18.431c3.866,2.652,7.668,5.26,11.58,7.943
		c-4.244,6.144-8.434,12.206-12.739,18.439c-1.597-1.077-3.145-2.122-4.815-3.248c-5.326,7.721-10.629,15.409-15.933,23.093
		c0.185,0.195,0.369,0.389,0.556,0.582c6.021-2.07,12.046-4.143,18.171-6.246c-0.631-1.864-1.217-3.602-1.859-5.5
		c5.269-1.818,10.515-3.629,15.86-5.475c1.543,4.437,3.039,8.747,4.606,13.259c-5.259,1.817-10.452,3.61-15.831,5.47
		c-0.674-1.84-1.312-3.583-1.995-5.45c-6.066,2.091-12.014,4.141-17.946,6.186c-0.21,0.757-0.07,1.161,0.717,1.423
		c5.716,1.895,11.412,3.84,17.284,5.827c0.638-1.82,1.235-3.532,1.917-5.479c5.3,1.776,10.553,3.538,15.91,5.334
		c-1.506,4.444-2.968,8.756-4.507,13.297c-5.334-1.792-10.589-3.559-15.894-5.339c0.621-1.894,1.192-3.641,1.804-5.518
		c-6.067-2.038-12.056-4.048-18.042-6.059c-0.208,0.204-0.415,0.406-0.623,0.609c3.866,5.591,7.731,11.183,11.654,16.854
		c1.637-1.119,3.146-2.148,4.817-3.288C146.582,122.231,149.734,126.75,152.975,131.399z"/>
	<path fill-rule="evenodd" clip-rule="evenodd" fill="#FFFFFF" d="M157.813,117.317c-3.633-1.219-7.055-2.364-10.682-3.581
		c0.989-2.957,1.95-5.827,2.984-8.91c3.563,1.193,7.06,2.364,10.703,3.585C159.818,111.375,158.851,114.242,157.813,117.317z"/>
	<path fill-rule="evenodd" clip-rule="evenodd" fill="#FFFFFF" d="M95.579,105.021c1.05,3.02,2.037,5.857,3.09,8.88
		c-3.502,1.214-6.956,2.41-10.645,3.688c-1.03-2.938-2.046-5.833-3.11-8.871C88.509,107.473,91.967,106.273,95.579,105.021z"/>
	<path fill-rule="evenodd" clip-rule="evenodd" fill="#FFFFFF" d="M157.668,83.615c1.037,2.979,2.043,5.863,3.094,8.874
		c-3.534,1.223-6.994,2.421-10.647,3.685c-1.03-2.933-2.039-5.808-3.111-8.866C150.529,86.087,154.033,84.873,157.668,83.615z"/>
	<path fill-rule="evenodd" clip-rule="evenodd" fill="#FFFFFF" d="M135.314,126.602c2.578-1.791,5.083-3.531,7.722-5.366
		c2.174,3.114,4.277,6.12,6.442,9.223c-2.576,1.788-5.093,3.534-7.729,5.362C139.606,132.751,137.506,129.742,135.314,126.602z"/>
	<path fill-rule="evenodd" clip-rule="evenodd" fill="#FFFFFF" d="M110.623,126.646c-2.159,3.127-4.24,6.139-6.395,9.257
		c-2.574-1.766-5.081-3.482-7.757-5.316c2.111-3.059,4.182-6.062,6.39-9.26C105.454,123.104,107.992,124.844,110.623,126.646z"/>
	<path fill-rule="evenodd" clip-rule="evenodd" fill="#FFFFFF" d="M87.859,83.881c3.587,1.206,7.005,2.357,10.684,3.594
		c-1.003,2.989-1.981,5.907-2.989,8.917c-3.597-1.212-7.067-2.382-10.688-3.603C85.856,89.84,86.827,86.955,87.859,83.881z"/>
	<path fill-rule="evenodd" clip-rule="evenodd" fill="#FFFFFF" d="M127.484,140.289c-3.11,0-6.118,0-9.236,0
		c0-3.675,0-7.335,0-11.104c3.021,0,6.068,0,9.236,0C127.484,132.813,127.484,136.473,127.484,140.289z"/>
	<path fill-rule="evenodd" clip-rule="evenodd" fill="#FDFDFE" d="M126.001,53.527c-0.712,0-1.254,0-1.822,0
		c-0.146-0.568-0.281-1.1-0.401-1.56c-0.549-0.495-1.077-0.433-1.863-0.164c0,2.861,0,5.769,0,8.7
		c0.54,0.567,1.125,0.629,1.802,0.107c0.511-0.913,0.22-1.932,0.286-3.034c-0.439-0.133-0.884-0.266-1.386-0.417
		c0-0.475,0-0.961,0-1.562c1.073,0,2.112,0,3.465,0c-0.082,1.734,0.021,3.523-0.306,5.23c-0.294,1.538-1.597,2.297-3.161,2.155
		c-1.625-0.147-2.748-1.107-2.815-2.791c-0.105-2.625-0.144-5.262,0.01-7.882c0.112-1.918,1.405-2.893,3.319-2.734
		C125.4,49.764,126.01,51.33,126.001,53.527z"/>
	<path fill-rule="evenodd" clip-rule="evenodd" fill="#FDFDFE" d="M91.486,60.606c0.652-0.444,1.106-0.753,1.623-1.104
		c2.084,3.021,4.132,5.991,6.157,8.926c1.727-0.399,1.697-1.229,1.015-2.243c-1.775-2.636-3.573-5.257-5.424-7.98
		c0.549-0.396,1.035-0.745,1.596-1.149c1.959,2.873,3.938,5.639,5.765,8.504c1.014,1.59,0.681,3.18-0.89,4.258
		c-1.558,1.07-3.019,0.646-4.076-0.841C95.314,66.25,93.453,63.471,91.486,60.606z"/>
	<path fill-rule="evenodd" clip-rule="evenodd" fill="#FDFDFE" d="M143.621,68.987c-0.585-0.448-0.982-0.751-1.563-1.197
		c2.492-3.576,4.966-7.127,7.438-10.673c3.874,2.339,4.564,3.692,3.179,6.096c-1.752,3.039-3.171,3.461-6.199,1.727
		C145.564,66.231,144.644,67.538,143.621,68.987z"/>
	<path fill-rule="evenodd" clip-rule="evenodd" fill="#9A1A35" d="M150.21,59.531c0.597,0.571,0.986,0.944,1.275,1.22
		c-0.27,1.66-0.979,2.641-2.193,3.461c-0.476-0.224-0.961-0.451-1.699-0.797C148.432,62.167,149.201,61.028,150.21,59.531z"/>
</g>
</svg>
