<?xml version="1.0" encoding="utf-8"?>
<!-- Generator: Adobe Illustrator 16.0.0, SVG Export Plug-In . SVG Version: 6.00 Build 0)  -->
<!DOCTYPE svg PUBLIC "-//W3C//DTD SVG 1.1//EN" "http://www.w3.org/Graphics/SVG/1.1/DTD/svg11.dtd">
<svg version="1.1" id="Layer_1" xmlns="http://www.w3.org/2000/svg" xmlns:xlink="http://www.w3.org/1999/xlink" x="0px" y="0px"
	 width="127.92px" height="77.76px" viewBox="0 0 127.92 77.76" enable-background="new 0 0 127.92 77.76" xml:space="preserve">
<radialGradient id="SVGID_1_" cx="56.8457" cy="31.8457" r="37.9627" gradientUnits="userSpaceOnUse">
	<stop  offset="0" style="stop-color:#00AEEF"/>
	<stop  offset="1" style="stop-color:#1C75BC"/>
</radialGradient>
<radialGradient id="SVGID_2_" cx="56.8457" cy="31.8457" r="38.4351" gradientUnits="userSpaceOnUse">
	<stop  offset="0" style="stop-color:#FFFFFF"/>
	<stop  offset="1" style="stop-color:#1C75BC"/>
</radialGradient>
<path fill="url(#SVGID_1_)" stroke="url(#SVGID_2_)" stroke-miterlimit="10" d="M105.191,43.191c0,6.627-5.373,12-12,12H20.5
	c-6.627,0-12-5.373-12-12V20.5c0-6.627,5.373-12,12-12h72.691c6.627,0,12,5.373,12,12V43.191z"/>
<g>
	<path d="M18.415,38.508c-0.119-0.358-0.199-0.577-0.199-1.711v-2.188c0-1.294-0.438-1.771-1.433-1.771h-0.756v5.671h-2.188V24.58
		h3.303c2.269,0,3.244,1.055,3.244,3.204v1.094c0,1.433-0.458,2.368-1.433,2.826c1.094,0.458,1.453,1.512,1.453,2.965v2.148
		c0,0.677,0.02,1.174,0.238,1.691H18.415z M16.027,26.569v4.278h0.856c0.816,0,1.313-0.358,1.313-1.472v-1.373
		c0-0.995-0.338-1.433-1.114-1.433H16.027z"/>
	<path d="M24.028,30.449h3.004v1.99h-3.004v4.079h3.78v1.989h-5.969V24.58h5.969v1.99h-3.78V30.449z"/>
	<path d="M36.247,38.508h-2.208L33.66,35.98h-2.687l-0.378,2.527h-2.01l2.229-13.928h3.204L36.247,38.508z M31.252,34.091h2.109
		l-1.055-7.044L31.252,34.091z"/>
	<path d="M37.263,24.58h3.462c2.188,0,3.263,1.214,3.263,3.442v7.043c0,2.229-1.074,3.442-3.263,3.442h-3.462V24.58z M39.452,26.569
		v9.949h1.233c0.696,0,1.114-0.358,1.114-1.354v-7.243c0-0.995-0.418-1.353-1.114-1.353H39.452z"/>
	<path d="M53.104,34.469l1.492-9.889h3.044v13.928h-2.069V28.52l-1.512,9.988H51.99l-1.632-9.849v9.849h-1.91V24.58h3.044
		L53.104,34.469z"/>
	<path d="M59.055,27.922c0-2.229,1.175-3.502,3.323-3.502c2.149,0,3.323,1.273,3.323,3.502v7.243c0,2.229-1.174,3.502-3.323,3.502
		c-2.148,0-3.323-1.273-3.323-3.502V27.922z M61.244,35.305c0,0.994,0.438,1.372,1.134,1.372s1.135-0.378,1.135-1.372v-7.521
		c0-0.995-0.438-1.373-1.135-1.373s-1.134,0.378-1.134,1.373V35.305z"/>
	<path d="M71.691,38.508c-0.119-0.358-0.198-0.577-0.198-1.711v-2.188c0-1.294-0.438-1.771-1.434-1.771h-0.756v5.671h-2.188V24.58
		h3.303c2.269,0,3.243,1.055,3.243,3.204v1.094c0,1.433-0.457,2.368-1.433,2.826c1.095,0.458,1.453,1.512,1.453,2.965v2.148
		c0,0.677,0.02,1.174,0.238,1.691H71.691z M69.304,26.569v4.278h0.855c0.816,0,1.313-0.358,1.313-1.472v-1.373
		c0-0.995-0.338-1.433-1.114-1.433H69.304z"/>
	<path d="M77.304,30.449h3.005v1.99h-3.005v4.079h3.781v1.989h-5.97V24.58h5.97v1.99h-3.781V30.449z"/>
</g>
<polygon points="90.801,20.537 88.955,22.382 98.473,31.9 89.009,41.363 90.801,43.155 102.109,31.846 "/>
<g>
</g>
<g>
</g>
<g>
</g>
<g>
</g>
<g>
</g>
<g>
</g>
</svg>
