<?xml version="1.0" encoding="utf-8"?>
<!-- Generator: Adobe Illustrator 16.1.0, SVG Export Plug-In . SVG Version: 6.00 Build 0)  -->
<!DOCTYPE svg PUBLIC "-//W3C//DTD SVG 1.1//EN" "http://www.w3.org/Graphics/SVG/1.1/DTD/svg11.dtd">
<svg version="1.1" id="Layer_1" xmlns="http://www.w3.org/2000/svg" xmlns:xlink="http://www.w3.org/1999/xlink" x="0px" y="0px"
	 width="900px" height="100px" viewBox="0 0 900 100" enable-background="new 0 0 900 100" xml:space="preserve">
<linearGradient id="SVGID_1_" gradientUnits="userSpaceOnUse" x1="450.0005" y1="100" x2="450.0005" y2="4.882812e-04">
	<stop  offset="0" style="stop-color:#013660"/>
	<stop  offset="8.698106e-04" style="stop-color:#013661"/>
	<stop  offset="0.027" style="stop-color:#0C4676"/>
	<stop  offset="0.0556" style="stop-color:#135389"/>
	<stop  offset="0.088" style="stop-color:#175E99"/>
	<stop  offset="0.1246" style="stop-color:#1A66A5"/>
	<stop  offset="0.1673" style="stop-color:#1B6DAF"/>
	<stop  offset="0.2201" style="stop-color:#1B71B5"/>
	<stop  offset="0.2942" style="stop-color:#1B74BA"/>
	<stop  offset="0.5" style="stop-color:#1C75BC"/>
	<stop  offset="0.7058" style="stop-color:#1B74BA"/>
	<stop  offset="0.7799" style="stop-color:#1B71B5"/>
	<stop  offset="0.8327" style="stop-color:#1B6DAF"/>
	<stop  offset="0.8754" style="stop-color:#1A66A5"/>
	<stop  offset="0.912" style="stop-color:#175E99"/>
	<stop  offset="0.9444" style="stop-color:#135389"/>
	<stop  offset="0.973" style="stop-color:#0C4676"/>
	<stop  offset="0.9991" style="stop-color:#013661"/>
	<stop  offset="1" style="stop-color:#013660"/>
</linearGradient>
<polygon fill="url(#SVGID_1_)" points="900,94.875 900,1.946 898.054,0 890.982,7.071 883.911,0 876.84,7.071 869.769,0 
	862.697,7.071 855.626,0 848.555,7.071 841.483,0 834.412,7.071 827.341,0 820.27,7.071 813.198,0 806.127,7.071 799.056,0 
	791.984,7.071 784.913,0 777.842,7.071 770.771,0 763.699,7.071 756.628,0 749.557,7.071 742.485,0 735.414,7.071 728.343,0 
	721.271,7.071 714.2,0 707.129,7.071 700.058,0 692.986,7.071 685.915,0 678.844,7.071 671.772,0 664.701,7.071 657.63,0 
	650.559,7.071 643.487,0 636.416,7.071 629.345,0 622.273,7.071 615.202,0 608.131,7.071 601.06,0 593.988,7.071 586.917,0 
	579.846,7.071 572.774,0 565.703,7.071 558.632,0 551.561,7.071 544.489,0 537.418,7.071 530.347,0 523.275,7.071 516.204,0 
	509.133,7.071 502.062,0 494.99,7.071 487.919,0 480.848,7.071 473.776,0 466.705,7.071 459.634,0 452.562,7.071 445.491,0 
	438.42,7.071 431.349,0 424.277,7.071 417.206,0 410.135,7.071 403.063,0 395.992,7.071 388.921,0 381.85,7.071 374.778,0 
	367.707,7.071 360.636,0 353.564,7.071 346.493,0 339.422,7.071 332.351,0 325.279,7.071 318.208,0 311.137,7.071 304.065,0 
	296.994,7.071 289.923,0 282.852,7.071 275.78,0 268.709,7.071 261.638,0 254.566,7.071 247.495,0 240.424,7.071 233.353,0 
	226.281,7.071 219.21,0 212.139,7.071 205.067,0 197.996,7.071 190.925,0 183.854,7.071 176.782,0 169.711,7.071 162.64,0 
	155.568,7.071 148.497,0 141.426,7.071 134.354,0 127.283,7.071 120.212,0 113.141,7.071 106.069,0 98.998,7.071 91.927,0 
	84.855,7.071 77.784,0 70.713,7.071 63.642,0 56.57,7.071 49.499,0 42.428,7.071 35.356,0 28.285,7.071 21.214,0 14.143,7.071 
	7.071,0 0,7.071 0,100 7.071,92.929 14.143,100 21.214,92.929 28.285,100 35.356,92.929 42.428,100 49.499,92.929 56.57,100 
	63.642,92.929 70.713,100 77.784,92.929 84.855,100 91.927,92.929 98.998,100 106.069,92.929 113.141,100 120.212,92.929 
	127.283,100 134.354,92.929 141.426,100 148.497,92.929 155.568,100 162.64,92.929 169.711,100 176.782,92.929 183.854,100 
	190.925,92.929 197.996,100 205.067,92.929 212.139,100 219.21,92.929 226.281,100 233.353,92.929 240.424,100 247.495,92.929 
	254.566,100 261.638,92.929 268.709,100 275.78,92.929 282.852,100 289.923,92.929 296.994,100 304.065,92.929 311.137,100 
	318.208,92.929 325.279,100 332.351,92.929 339.422,100 346.493,92.929 353.564,100 360.636,92.929 367.707,100 374.778,92.929 
	381.85,100 388.921,92.929 395.992,100 403.063,92.929 410.135,100 417.206,92.929 424.277,100 431.349,92.929 438.42,100 
	445.491,92.929 452.562,100 459.634,92.929 466.705,100 473.776,92.929 480.848,100 487.919,92.929 494.99,100 502.062,92.929 
	509.133,100 516.204,92.929 523.275,100 530.347,92.929 537.418,100 544.489,92.929 551.561,100 558.632,92.929 565.703,100 
	572.774,92.929 579.846,100 586.917,92.929 593.988,100 601.06,92.929 608.131,100 615.202,92.929 622.273,100 629.345,92.929 
	636.416,100 643.487,92.929 650.559,100 657.63,92.929 664.701,100 671.772,92.929 678.844,100 685.915,92.929 692.986,100 
	700.058,92.929 707.129,100 714.2,92.929 721.271,100 728.343,92.929 735.414,100 742.485,92.929 749.557,100 756.628,92.929 
	763.699,100 770.771,92.929 777.842,100 784.913,92.929 791.984,100 799.056,92.929 806.127,100 813.198,92.929 820.27,100 
	827.341,92.929 834.412,100 841.483,92.929 848.555,100 855.626,92.929 862.697,100 869.769,92.929 876.84,100 883.911,92.929 
	890.982,100 898.054,92.929 "/>
</svg>
